<?xml version="1.0" encoding="UTF-8"?>
<svg xmlns="http://www.w3.org/2000/svg" viewBox="0 0 100 100">
  <defs>
    <style>.cls-1{fill:#3c3c43}</style>
  </defs>
  <g>
    <path d="M66.3 63.32c-.44.04-.87.17-1.25.39l-9.87 5.7-.36.21 2.44 4.22c.1.18.06.41-.1.55a32.7 32.7 0 0 1-17.54 7.35.43.43 0 0 1-.47-.43V35.4c0-.23.19-.43.43-.43H59.9c.56 0 1.02-.46 1.02-1.02V30.2c0-.56-.46-1.02-1.02-1.02H39.58c-.23 0-.43-.19-.43-.43v-8.12c4.51-1.35 7.7-5.76 7.13-10.83-.51-4.61-4.26-8.36-8.88-8.87-6.09-.68-11.25 4.08-11.25 10.03 0 4.57 3.04 8.42 7.2 9.67v8.12c0 .23-.19.43-.43.43H12.61c-.56 0-1.02.46-1.02 1.02v3.75c0 .56.46 1.02 1.02 1.02h20.32c.23 0 .43.19.43.43v45.91c0 .25-.22.46-.47.43-6.7-.68-12.74-3.37-17.54-7.35a.44.44 0 0 1-.1-.55l2.44-4.22-.36-.21-9.87-5.7c-.38-.22-.81-.35-1.25-.39-.53-.05-1.08.03-1.56.26l-2.67 1.24 1.89 3.71C9.32 79.11 21.68 86.9 36.25 86.91c14.57 0 26.94-7.8 32.38-18.38l1.89-3.71-2.67-1.24c-.48-.22-1.03-.31-1.56-.26ZM31.01 12.19a5.39 5.39 0 0 1 6.47-6.47c1.97.44 3.57 2.03 4.01 4.01a5.393 5.393 0 0 1-6.47 6.47 5.33 5.33 0 0 1-4.01-4.01" class="cls-1"/>
  </g>
</svg> 