<?xml version="1.0" encoding="UTF-8"?>
<svg xmlns="http://www.w3.org/2000/svg" viewBox="0 0 779.36 87.77" data-testid="kns-logo" data-v-5a294e92=""><defs><style>.i1818430867__cls-1{fill:#3c3c43}</style></defs><g id="i1818430867__Ebene_1"><path d="M66.3 63.32c-.44.04-.87.17-1.25.39l-9.87 5.7-.36.21 2.44 4.22c.1.18.06.41-.1.55a32.7 32.7 0 0 1-17.54 7.35.43.43 0 0 1-.47-.43V35.4c0-.23.19-.43.43-.43H59.9c.56 0 1.02-.46 1.02-1.02V30.2c0-.56-.46-1.02-1.02-1.02H39.58c-.23 0-.43-.19-.43-.43v-8.12c4.51-1.35 7.7-5.76 7.13-10.83-.51-4.61-4.26-8.36-8.88-8.87-6.09-.68-11.25 4.08-11.25 10.03 0 4.57 3.04 8.42 7.2 9.67v8.12c0 .23-.19.43-.43.43H12.61c-.56 0-1.02.46-1.02 1.02v3.75c0 .56.46 1.02 1.02 1.02h20.32c.23 0 .43.19.43.43v45.91c0 .25-.22.46-.47.43-6.7-.68-12.74-3.37-17.54-7.35a.44.44 0 0 1-.1-.55l2.44-4.22-.36-.21-9.87-5.7c-.38-.22-.81-.35-1.25-.39-.53-.05-1.08.03-1.56.26l-2.67 1.24 1.89 3.71C9.32 79.11 21.68 86.9 36.25 86.91c14.57 0 26.94-7.8 32.38-18.38l1.89-3.71-2.67-1.24c-.48-.22-1.03-.31-1.56-.26ZM31.01 12.19a5.39 5.39 0 0 1 6.47-6.47c1.97.44 3.57 2.03 4.01 4.01a5.393 5.393 0 0 1-6.47 6.47 5.33 5.33 0 0 1-4.01-4.01M634.46 39.88c-3.52-1.7-7.3-2.46-11.16-2.83-3.89-.37-7.79-.54-11.68-.93-1.59-.16-6.35-.48-6.63-3.6-.2-2.28.91-3.8 3.11-5.03 1.04-.58 2.17-.98 3.34-1.22 4.52-.92 8.96-.66 13.31.56.73.21 1.45.46 2.14.79 1.15.54 2.24 1.19 3.24 2 .18.14.36.29.52.44.64.59.88 1.49.66 2.34l1.19 1.04 3.62-7.3 2.5-5.04-1.55-.32c-.51.65-1.29.98-2.09.89-.17-.04-.34-.07-.52-.14-1.1-.38-4.67-1.8-7.69-2.82-.6-.2-1.2-.37-1.81-.5-6.4-1.38-12.82-1.15-19.15 1.02-3.83 1.32-7.1 3.47-9.34 6.95-4.54 7.05-1.93 15.54 5.76 18.79 3.02 1.27 6.2 1.86 9.45 2.1 4.11.3 8.24.48 12.35.76 1.53.11 3.06.3 4.49.88 1.64.67 3.04 2.65 2.83 4.41-.15 1.24-.77 2.21-1.68 3.02-1.65 1.45-3.61 2.27-5.73 2.7-4.84.98-9.63.62-14.39-.53-2.93-.71-5.75-1.68-8.25-3.43-.22-.15-.43-.31-.62-.48a2.34 2.34 0 0 1-.74-2.29l-1.23-.99-2.01 4.51-3.59 8.08 1.56.25c.51-.71 1.36-1.1 2.22-.98 0 0 .23.09.35.15.94.43 1.84.94 2.79 1.35 4.94 2.13 10.12 3.29 15.5 3.51 3.96.16 7.91-.03 11.78-1 4.26-1.07 8.19-2.8 11.28-6.03 3.83-4.02 5.02-8.71 3.03-13.97-1.28-3.4-3.95-5.55-7.14-7.09ZM681.34 19.66c-16.58 0-30.03 10.83-30.03 24.19s13.44 24.19 30.03 24.19 30.03-10.83 30.03-24.19-13.44-24.19-30.03-24.19m0 39.89c-10.77 0-19.49-7.03-19.49-15.7s8.73-15.7 19.49-15.7 19.49 7.03 19.49 15.7-8.73 15.7-19.49 15.7M211.16 65.3c-.22-.16-.39-.36-.52-.6-1.93-3.71-18.34-35.37-21.27-41.02-.38-.73-.2-1.67.49-2.13.26-.17.55-.29.86-.36l.41-1.53h-16.46l.41 1.53c.32.07.62.19.88.37.67.46.86 1.38.51 2.11L156.68 64.5c-.12.25-.3.47-.53.64-.58.43-1.74 1.23-2.37 1.36l-.41 1.53h14.71l-.41-1.53c-.32-.06-.61-.19-.86-.36-.68-.46-.87-1.38-.51-2.11l2.89-5.96a3.4 3.4 0 0 1 3.07-1.92h19.36c1.27 0 2.44.71 3.03 1.84l.39.76 2.56 5.28c.36.73.17 1.66-.51 2.11-.26.17-.55.3-.87.36l-.41 1.53h17.900000000000002l-.41-1.53c-.56-.11-1.53-.76-2.15-1.2Zm-22.85-16.14H175.2c-.79 0-1.3-.82-.96-1.53l6.33-13.06c.38-.79 1.5-.8 1.9-.03l6.77 13.06c.37.71-.15 1.56-.95 1.56ZM775.23 65.03a.9.9 0 0 1-.05-.32V22.98c0-.11.01-.22.05-.32.28-.76.94-1.31 1.75-1.47l.41-1.53h-15.26l.41 1.53c.81.17 1.47.72 1.75 1.47.04.1.05.2.05.3v25.58c0 .95-1.15 1.42-1.82.75l-26.48-26.48c-.62-.62.94-1.45 1.8-1.63l.41-1.53h-18.11l.41 1.53c.81.17 1.47.72 1.75 1.47.02.11.03.21.05.32V64.7c-.02.11-.03.21-.05.32-.28.76-.94 1.31-1.75 1.47l-.41 1.53h15.26l-.41-1.53c-.81-.17-1.47-.72-1.75-1.47-.02-.11-.03-.21-.05-.32V37.94c0-.95 1.14-1.43 1.81-.76l28.28 28.28c.44.44-.88.9-1.52 1.03l-.41 1.53h16.05l-.41-1.53c-.81-.17-1.47-.72-1.75-1.47ZM457.82 22.66c.28-.76.94-1.31 1.75-1.47l.41-1.53h-15.26l.41 1.53c.81.17 1.47.72 1.75 1.47.04.1.05.2.05.3v25.58c0 .95-1.15 1.42-1.82.75l-26.48-26.48c-.62-.62.94-1.45 1.8-1.63l.41-1.53h-18.11l.41 1.53c.81.17 1.47.72 1.75 1.47.02.11.03.21.05.32V64.7c-.02.11-.03.21-.05.32-.28.76-.94 1.31-1.75 1.47l-.41 1.53h15.26l-.41-1.53c-.81-.17-1.47-.72-1.75-1.47-.02-.11-.03-.21-.05-.32V37.94c0-.95 1.14-1.43 1.81-.76l28.28 28.28c.44.44-.88.9-1.52 1.03l-.41 1.53h16.05l-.41-1.53c-.81-.17-1.47-.72-1.75-1.47a.9.9 0 0 1-.05-.32V22.98c0-.11.01-.22.05-.32ZM391.19 17.53l-1.53.41c-.18.86-.75 1.79-1.62 1.79h-46.31l.41 1.53c.86.18 1.79.75 1.79 1.62V64.9c0 .86-.94 1.44-1.79 1.62l-.41 1.53h46.300000000000004c.87 0 1.45.94 1.63 1.8l1.53.41V57.65l-1.53.41c-.18.86-.75 1.79-1.62 1.79h-32.2c-.59 0-1.07-.48-1.07-1.07V48.33c0-.59.48-1.07 1.07-1.07h19.85c.87 0 1.45.94 1.62 1.79l1.53.41V37.02l-1.53.4c-.17.85-.74 1.77-1.59 1.79h-19.880000000000003c-.59 0-1.07-.48-1.07-1.07V29c0-.59.48-1.07 1.07-1.07h32.2c.87 0 1.45.94 1.63 1.8l1.53.41V17.53ZM326.8 19.74h-44.12c-.86 0-1.43-.94-1.6-1.79l-1.53-.41v13.28l1.53-.41c.17-.85.74-1.79 1.6-1.79h15.62c.59 0 1.07.48 1.07 1.07V64.9c0 .86-.93 1.42-1.78 1.6l-.41 1.53h15.12l-.41-1.53c-.85-.17-1.78-.74-1.78-1.6V29.7c0-.59.48-1.07 1.07-1.07h15.62c.86 0 1.43.94 1.6 1.79l1.53.41V17.55l-1.53.41c-.17.85-.74 1.78-1.6 1.79ZM258.16 19.73h-38.64l.41 1.53c.86.18 1.79.75 1.79 1.62v42.010000000000005c0 .86-.94 1.43-1.79 1.61l-.41 1.53h16.19l-.41-1.53c-.51-.11-1.38-.66-2-1.09-.45-.32-.72-.83-.72-1.38V49.6c0-.59.48-1.06 1.07-1.06h24.52c7.06 0 12.79-5.72 12.79-12.79v-3.24c0-7.05-5.72-12.77-12.77-12.77Zm2.12 14.72c-.17 3.18-3.02 5.57-6.21 5.57h-20.43c-.59 0-1.07-.48-1.07-1.07v-9.64c0-.59.48-1.07 1.07-1.07h20.76c3.36 0 6.06 2.81 5.88 6.2ZM149.09 65.24c-4.52-5.1-18.57-20.88-21.99-24.73-.41-.46-.34-1.17.15-1.55l22.13-17.04c.49-.31 1-.59 1.35-.66l.41-1.53h-20.09l.41 1.53c.35.07.66.23.94.44.14.12.26.25.35.4.25.44.11.99-.26 1.33l-20.14 15.5c-.7.54-1.72.04-1.72-.84v-15.2c0-.87.94-1.45 1.8-1.63l.41-1.53H97.58l.41 1.53c.86.18 1.8.76 1.8 1.63v41.77c0 .15-.02.3-.08.44-.29.72-.94 1.25-1.72 1.41l-.41 1.53h15.26l-.41-1.53a2.32 2.32 0 0 1-1.68-1.32c-.09-.19-.11-.41-.11-.63V52.29c0-.33.15-.64.41-.84l6.51-5.01c.44-.34 1.06-.29 1.44.13 1.16 1.29 3.71 4.13 6.5 7.25l7.19 8.09c1.07 1.21 2.01 2.29 2.71 3.1.53.62-.93 1.34-1.74 1.51l-.41 1.53h18.5l-.41-1.53c-.58-.12-1.73-.7-2.23-1.26ZM551.09 41.67l-3.46-4.62-.98 1.24c.28.59.31 1.26.08 1.84-.12.32-.35.59-.62.81a73 73 0 0 0-8.44 7.82c-.19.2-.52.18-.68-.04-1.75-2.5-2.75-4.21-6.2-7.04 1.15-.99 2.44-1.97 3.57-3.1 4.03-4.07 3.7-10.82-.63-14.57-1.63-1.41-3.52-2.41-5.56-3.13-2.53-.9-5.23-1.25-7.91-1.19-5.09.11-9.64 1.47-13.13 4.98-2.05 2.07-2.89 4.62-2.68 7.49.21 2.89 1.61 5.24 3.66 7.25.37.37.84.65 1.36 1.06-.56.29-.84.43-1.12.58-2.53 1.3-4.82 2.88-6.72 4.99-4.82 5.35-4.62 14.32 1.75 19.1 3.38 2.54 7.19 3.79 11.4 4.13 6.65.54 12.66-.99 17.91-5.08.52-.4 1.54-1.25 2.07-1.69.18-.15.45-.12.59.07l4.26 5.45h12.93l-10.11-12.43c-.13-.16-.13-.4.02-.56 2.79-3.04 5.79-5.76 8.64-7.89.07-.06.16-.08.26-.08l3.73-.02h.01l-2.91-3.9-1.08-1.44Zm-35.08-13.59c2.94-1.96 8.07-1.66 10.51.61 3.05 2.84 2.36 7.5-1.47 9.26-1.29.59-2.9.94-4.21.94-2.01.02-3.88-.44-5.41-1.75-3.05-2.6-2.76-6.83.58-9.06m11.71 29.9c-2.26 2.1-5.46 3.23-8.93 3.24-3.01-.05-5.66-.6-7.82-2.51-3.92-3.48-3.61-8.93.73-11.92 5.45-3.75 13.68-1.95 17.29 4.06 1.52 2.53.92 5.1-1.27 7.13" class="i1818430867__cls-1"></path></g></svg>